<svg xmlns="http://www.w3.org/2000/svg" viewBox="68 120 550 469" width="550" height="469" role="img" aria-label="m2 marketimetrics">
<g transform="translate(0.000000,641.000000) scale(0.100000,-0.100000)"
fill="#0589C4" stroke="none">
<path d="M4559 5140 c-379 -28 -630 -127 -815 -321 -101 -107 -161 -209 -214
-367 -28 -85 -85 -340 -77 -348 6 -6 858 -75 886 -72 22 3 26 11 43 88 42 200
113 306 243 367 55 26 70 28 175 28 110 0 118 -1 182 -33 173 -85 249 -267
187 -450 -59 -174 -219 -335 -669 -672 -130 -97 -235 -181 -357 -286 l-72 -62
-58 5 c-71 6 -254 -11 -342 -33 -146 -36 -280 -118 -441 -271 l-95 -90 -45 69
c-100 155 -258 266 -435 304 -119 25 -369 23 -496 -3 -179 -38 -328 -125 -484
-282 -44 -45 -83 -81 -87 -81 -5 0 -8 74 -8 165 l0 165 -420 0 -420 0 0 -1190
0 -1190 455 0 455 0 0 664 c0 706 3 757 49 861 29 65 112 149 173 175 158 68
322 11 395 -138 l28 -57 3 -753 3 -752 454 0 454 0 4 688 c4 739 4 748 57 853
43 83 134 156 218 174 l32 7 -21 -54 c-55 -138 -79 -224 -113 -415 l-5 -33
244 0 245 0 0 -610 0 -610 455 0 455 0 0 610 0 610 670 0 670 0 0 370 0 370
-699 0 c-409 0 -702 4 -705 9 -16 25 249 241 565 463 263 185 481 379 597 533
74 98 166 286 194 398 19 78 23 116 22 252 -1 186 -17 263 -85 399 -154 312
-444 489 -879 535 -140 15 -438 21 -571 11z"/>
</g>
</svg>
